<?xml version="1.0" standalone="no"?>
<!DOCTYPE svg PUBLIC "-//W3C//DTD SVG 20010904//EN"
 "http://www.w3.org/TR/2001/REC-SVG-20010904/DTD/svg10.dtd">
<svg version="1.0" xmlns="http://www.w3.org/2000/svg"
 width="1024.000000pt" height="1024.000000pt" viewBox="0 0 1024.000000 1024.000000"
 preserveAspectRatio="xMidYMid meet">

<g transform="translate(0.000000,1024.000000) scale(0.100000,-0.100000)"
fill="#000000" stroke="none">
<path d="M4909 8129 c-1134 -73 -2162 -828 -2596 -1907 -327 -817 -301 -1720
75 -2533 233 -504 658 -983 1143 -1287 485 -303 1002 -452 1574 -453 455 -1
802 69 1200 240 221 95 507 269 705 427 114 92 358 337 452 454 158 198 316
453 408 657 451 1010 353 2187 -258 3078 -222 324 -518 618 -837 829 -443 295
-932 460 -1460 496 -167 11 -223 11 -406 -1z m401 -329 c163 -13 289 -32 430
-66 847 -208 1560 -829 1883 -1644 206 -519 255 -1087 141 -1633 -51 -242
-117 -432 -229 -662 -138 -283 -284 -486 -519 -721 -312 -311 -652 -525 -1051
-661 -585 -198 -1226 -185 -1793 37 -643 252 -1155 718 -1463 1332 -200 397
-292 796 -292 1263 -1 298 29 510 109 787 357 1232 1532 2062 2784 1968z"/>
<path d="M3805 6725 l-25 -24 0 -1660 0 -1659 31 -26 31 -26 654 0 654 0 0 85
0 85 -597 2 -598 3 -3 1538 -2 1537 840 0 840 0 0 -173 c0 -240 21 -311 118
-399 89 -80 159 -98 382 -98 l160 0 0 -668 0 -667 85 -85 85 -85 0 808 c0 681
-2 812 -14 835 -8 15 -167 179 -353 365 l-339 337 -962 0 -963 0 -24 -25z
m2180 -452 c93 -93 171 -171 173 -175 2 -5 -45 -8 -105 -8 -83 0 -117 5 -149
19 -48 22 -82 61 -88 105 -8 46 -13 226 -7 226 3 0 82 -75 176 -167z"/>
<path d="M5885 5141 c-265 -144 -618 -464 -974 -884 l-83 -97 -80 72 c-44 40
-127 112 -184 161 -88 73 -110 87 -140 87 -49 0 -84 -36 -84 -88 0 -31 10 -50
52 -103 254 -316 382 -471 400 -484 25 -17 80 -20 108 -5 10 5 53 61 96 122
278 404 616 835 874 1113 56 61 106 118 111 128 16 28 -18 21 -96 -22z"/>
<path d="M5761 4501 c-73 -28 -140 -73 -195 -131 -44 -47 -46 -52 -46 -107 0
-32 -3 -87 -6 -123 l-6 -65 -89 -60 -89 -60 0 -312 0 -313 169 0 170 0 3 243
3 244 30 48 c78 127 270 142 364 29 46 -56 51 -92 51 -338 l0 -226 141 0 c135
0 173 7 191 34 4 6 8 143 8 303 l0 293 -87 57 c-49 32 -91 63 -95 68 -4 6 -8
63 -8 128 l0 119 -55 53 c-33 32 -85 69 -131 92 -70 34 -85 38 -173 40 -76 3
-107 -1 -150 -16z"/>
</g>
</svg>
